<svg width="3179" height="3179" xmlns="http://www.w3.org/2000/svg" xmlns:xlink="http://www.w3.org/1999/xlink" overflow="hidden"><g><rect x="0" y="0" width="3179" height="3179" fill="#FFFFFF" fill-opacity="0"/><path d="M1497.12 2805.5 1053 1029" stroke="#000000" stroke-width="8.00126" stroke-miterlimit="8" fill="none" fill-rule="evenodd"/><path d="M0 0 1776.5 444.125" stroke="#000000" stroke-width="8.00126" stroke-miterlimit="8" fill="none" fill-rule="evenodd" transform="matrix(-1 0 0 1 2804.5 1948)"/><path d="M1028 1029 2804.5 2805.5" stroke="#000000" stroke-width="8.00126" stroke-miterlimit="8" fill="none" fill-rule="evenodd"/><path d="M1059.5 0C1644.65-2.69777e-13 2119 474.354 2119 1059.5" stroke="#000000" stroke-width="8.00126" stroke-miterlimit="8" fill="none" fill-rule="evenodd" transform="matrix(6.12323e-17 1 1 -6.12323e-17 1060 5.25017e-05)"/><path d="M654.5 0C1015.97-1.66653e-13 1309 293.03 1309 654.501" stroke="#000000" stroke-width="8.00126" stroke-miterlimit="8" fill="none" fill-rule="evenodd" transform="matrix(1 0 0 -1 1465 2119)"/><path d="M405 0C628.675-1.03251e-13 810 181.549 810 405.5" stroke="#000000" stroke-width="8.00126" stroke-miterlimit="8" fill="none" fill-rule="evenodd" transform="matrix(-1.83697e-16 -1 -1 1.83697e-16 2774 1870)"/><path d="M249.5 0C387.295-3.17647e-14 499 111.481 499 249" stroke="#000000" stroke-width="8.00126" stroke-miterlimit="8" fill="none" fill-rule="evenodd" transform="matrix(-1 1.22465e-16 1.22465e-16 1 2618 1060)"/><path d="M156 0C242.156-3.97218e-14 312 69.8436 312 156" stroke="#000000" stroke-width="8.00126" stroke-miterlimit="8" fill="none" fill-rule="evenodd" transform="matrix(6.12323e-17 1 1 -6.12323e-17 2119 1153)"/><path d="M93.5 0C145.139-2.38076e-14 187 41.8614 187 93.5" stroke="#000000" stroke-width="8.00126" stroke-miterlimit="8" fill="none" fill-rule="evenodd" transform="matrix(1 0 0 -1 2182 1465)"/><path d="M62.5 0C97.0178-1.59142e-14 125 27.9822 125 62.5" stroke="#000000" stroke-width="8.00126" stroke-miterlimit="8" fill="none" fill-rule="evenodd" transform="matrix(-1.83697e-16 -1 -1 1.83697e-16 2369 1434)"/><path d="M31 0C48.1208-7.89343e-15 62 13.8792 62 31" stroke="#000000" stroke-width="8.00126" stroke-miterlimit="8" fill="none" fill-rule="evenodd" transform="matrix(-1 1.22465e-16 1.22465e-16 1 2337 1309)"/><path d="M31 0C48.1208-7.89343e-15 62 13.8792 62 31" stroke="#000000" stroke-width="8.00126" stroke-miterlimit="8" fill="none" fill-rule="evenodd" transform="matrix(6.12323e-17 1 1 -6.12323e-17 2275 1309)"/><path d="M1059.5 1060C1644.65 1060 2119 1534.35 2119 2119.5" stroke="#000000" stroke-width="8.00126" stroke-miterlimit="8" fill="none" fill-rule="evenodd"/><path d="M2119 2119.5C2119 2480.97 1825.97 2774 1464.5 2774" stroke="#000000" stroke-width="8.00126" stroke-miterlimit="8" fill="none" fill-rule="evenodd"/><path d="M1465 2774C1241.32 2774 1060 2592.68 1060 2369" stroke="#000000" stroke-width="8.00126" stroke-miterlimit="8" fill="none" fill-rule="evenodd"/><path d="M1060 2368.5C1060 2230.71 1171.48 2119 1309 2119" stroke="#000000" stroke-width="8.00126" stroke-miterlimit="8" fill="none" fill-rule="evenodd"/><path d="M1309 2119C1395.16 2119 1465 2188.84 1465 2275" stroke="#000000" stroke-width="8.00126" stroke-miterlimit="8" fill="none" fill-rule="evenodd"/><path d="M1465 2275.5C1465 2327.14 1423.14 2369 1371.5 2369" stroke="#000000" stroke-width="8.00126" stroke-miterlimit="8" fill="none" fill-rule="evenodd"/><path d="M1371.5 2369C1336.98 2369 1309 2341.02 1309 2306.5" stroke="#000000" stroke-width="8.00126" stroke-miterlimit="8" fill="none" fill-rule="evenodd"/><path d="M1309 2306.5C1309 2289.1 1322.88 2275 1340 2275" stroke="#000000" stroke-width="8.00126" stroke-miterlimit="8" fill="none" fill-rule="evenodd"/><path d="M1340 2275C1357.12 2275 1371 2289.1 1371 2306.5" stroke="#000000" stroke-width="8.00126" stroke-miterlimit="8" fill="none" fill-rule="evenodd"/></g></svg>